<?xml version="1.0" encoding="UTF-8"?>
<!DOCTYPE svg PUBLIC "-//W3C//DTD SVG 1.1//EN" "http://www.w3.org/Graphics/SVG/1.1/DTD/svg11.dtd">
<!-- Creator: CorelDRAW 2021 (64-Bit) -->
<svg xmlns="http://www.w3.org/2000/svg" xml:space="preserve" width="84.6671mm" height="13.3249mm" version="1.1" shape-rendering="geometricPrecision" text-rendering="geometricPrecision" image-rendering="optimizeQuality" fill-rule="evenodd" clip-rule="evenodd"
viewBox="0 0 13052.46 2054.2"
 xmlns:xlink="http://www.w3.org/1999/xlink"
 xmlns:xodm="http://www.corel.com/coreldraw/odm/2003">
 <g id="Слой_x0020_1">
  <metadata id="CorelCorpID_0Corel-Layer"/>
  <g id="_1178270834208">
   <path fill="none" d="M810.18 2054.2c-253.5,0 -577.55,-57.84 -784.95,-210.88 -26.53,-19.56 -33.11,-56.44 -15.05,-84l257.4 -392.19c9.42,-14.37 23.31,-23.66 40.17,-26.9 16.8,-3.22 33.27,0.28 47.28,10.1 151.46,105.94 362.59,168.11 546.72,172.15 75.6,1.65 276.2,-10.14 289.18,-110.7 4.35,-33.48 -60.68,-57.41 -84.43,-66.58 -95.43,-36.81 -197.13,-57.01 -294.6,-87.89 -268.78,-85.19 -472.6,-227.27 -432.18,-539.83 51.23,-396.07 369.68,-613.29 738.08,-687.86 301.29,-60.99 720.49,-34.12 981.33,140.77 27.63,18.53 35.7,55.96 18.19,84.23l-241.17 389.54c-9.16,14.78 -23.05,24.54 -40.07,28.09 -16.97,3.53 -33.72,0.15 -47.98,-9.7 -132.75,-91.71 -323.66,-135.22 -483.65,-129.16 -77.56,2.93 -254.57,26.96 -267.33,125.81 -4.59,35.53 58.7,58.66 84.08,68.39 95.1,36.49 196.88,55.71 294.31,85.31 265.76,80.7 474.71,216.66 434.55,527.34 -65.95,509.97 -583.74,713.96 -1039.9,713.96zm8136.53 -1047.93c116.82,98.68 160.31,244.82 134.66,397.74 -31.37,187.17 -158.74,359.44 -321.37,454.84 -201.03,117.95 -435.06,158.25 -665.55,158.25l-1020.25 0c-20.32,0 -38.36,-9.22 -50.27,-25.68 -11.86,-16.39 -15,-36.58 -8.66,-55.79l610.82 -1855c8.46,-25.73 31.85,-42.66 58.95,-42.66l938.08 0c150.8,0 326.21,22.05 458.29,97.86 154.41,88.63 213.78,230.7 191.02,406.79 -26.86,207.69 -148.72,363.81 -325.73,463.66zm1203.45 -438.7l-61.13 188.54 738.76 0c20.27,0 38.32,9.19 50.24,25.59 11.87,16.39 15.05,36.46 8.79,55.68l-127.55 392.2c-8.4,25.84 -31.85,42.87 -59.01,42.87l-781.69 0 -69.8 215.06 887.13 0c20.41,0 38.57,9.31 50.46,25.9 11.84,16.5 14.86,36.83 8.36,56.07l-137.2 405.45c-8.63,25.48 -31.9,42.16 -58.81,42.16l-1486.63 0c-20.32,0 -38.37,-9.22 -50.29,-25.68 -11.86,-16.39 -14.98,-36.58 -8.66,-55.79l610.84 -1855c8.46,-25.73 31.85,-42.66 58.94,-42.66l1452.19 0c20.35,0 38.42,9.25 50.32,25.75 11.86,16.43 14.97,36.68 8.59,55.88l-134.57 405.46c-8.51,25.65 -31.88,42.52 -58.92,42.52l-890.32 0zm1523.89 10.59l-483.9 0c-20.35,0 -38.45,-9.27 -50.35,-25.78 -11.84,-16.43 -14.94,-36.69 -8.54,-55.9l138.61 -416.05c8.54,-25.64 31.87,-42.47 58.89,-42.47l1661.54 0c20.35,0 38.45,9.27 50.35,25.78 11.84,16.45 14.94,36.71 8.54,55.91l-138.61 416.05c-8.54,25.62 -31.88,42.46 -58.89,42.46l-522.21 0 -460.82 1396.32c-8.48,25.7 -31.88,42.61 -58.94,42.61l-524.71 0c-20.33,0 -38.4,-9.22 -50.3,-25.71 -11.84,-16.39 -14.97,-36.6 -8.63,-55.81l447.96 -1357.41zm-9081.48 0l-483.88 0c-20.35,0 -38.46,-9.27 -50.36,-25.78 -11.82,-16.43 -14.92,-36.69 -8.54,-55.9l138.61 -416.05c8.54,-25.64 31.88,-42.47 58.91,-42.47l1661.53 0c20.35,0 38.46,9.27 50.36,25.78 11.84,16.45 14.92,36.71 8.54,55.91l-138.61 416.05c-8.54,25.62 -31.88,42.46 -58.91,42.46l-522.21 0 -460.81 1396.32c-8.48,25.7 -31.88,42.61 -58.95,42.61l-524.69 0c-20.33,0 -38.42,-9.22 -50.32,-25.71 -11.82,-16.39 -14.95,-36.6 -8.63,-55.81l447.96 -1357.41zm2133.45 1078.55l-700.51 0 -242.67 334.75c-11.9,16.43 -29.97,25.64 -50.24,25.64l-553.86 0c-24.02,0 -45.09,-13.1 -55.7,-34.69 -10.59,-21.54 -8.11,-46.25 6.54,-65.27l1429.68 -1854.99c12.01,-15.57 29.49,-24.19 49.16,-24.19l516.74 0c31.71,0 58.15,23.66 61.68,55.16l208.03 1854.99c2,17.9 -3.41,34.86 -15.43,48.3 -12.04,13.46 -28.18,20.69 -46.26,20.69l-522.04 0c-32.5,0 -59.41,-24.93 -61.9,-57.33l-23.22 -303.05zm1446.67 -1078.55l-483.88 0c-20.35,0 -38.46,-9.27 -50.36,-25.78 -11.84,-16.43 -14.94,-36.69 -8.54,-55.9l138.61 -416.05c8.54,-25.64 31.88,-42.47 58.89,-42.47l1661.54 0c20.35,0 38.45,9.27 50.35,25.78 11.84,16.45 14.94,36.71 8.54,55.91l-138.59 416.05c-8.54,25.62 -31.88,42.46 -58.91,42.46l-522.21 0 -460.82 1396.32c-8.48,25.7 -31.88,42.61 -58.94,42.61l-524.69 0c-20.33,0 -38.42,-9.22 -50.32,-25.71 -11.84,-16.39 -14.97,-36.6 -8.63,-55.81l447.96 -1357.41zm1950.8 -37.11l-76.93 233.62 290.5 0c112.79,0 235.11,-26.75 252.06,-157.89 9.91,-76.7 -86.69,-75.72 -139.55,-75.72l-326.08 0zm-238.83 720.8l-82.31 252.16 370.24 0c90.15,0 206.82,-22.25 252.22,-110.4 14.38,-27.92 26.59,-93.22 -3.7,-115.05 -30.92,-22.28 -80.69,-26.72 -117.75,-26.72l-418.7 0zm-3197.71 -116.19l-28.43 -365.49 -262.99 365.49 291.41 0z"/>
   <path fill="white" d="M810.18 2031.1c-248.65,0 -568.47,-56.76 -771.24,-206.38 -16.66,-12.29 -20.81,-35.41 -9.43,-52.74l257.39 -392.2c6,-9.14 14.49,-14.83 25.22,-16.88 10.76,-2.07 20.75,0.06 29.71,6.34 155.32,108.64 371.15,172.2 559.44,176.33 87.89,1.93 297.26,-12.07 312.59,-130.84 6.47,-50.09 -62.36,-76.93 -99.03,-91.08 -93.85,-36.23 -199.16,-57.69 -295.93,-88.37 -255.52,-80.98 -455.32,-212.88 -416.25,-514.86 49.9,-386.02 361.43,-595.65 719.75,-668.19 295.68,-59.85 708.82,-33.7 963.9,137.33 17.42,11.65 22.46,35.04 11.42,52.88l-241.17 389.55c-5.83,9.4 -14.32,15.37 -25.17,17.62 -10.84,2.28 -21.01,0.22 -30.12,-6.07 -136.83,-94.55 -332.68,-139.49 -497.65,-133.24 -89.74,3.41 -274.47,30.79 -289.36,145.93 -6.69,51.69 60.42,78.21 98.73,92.91 93.38,35.81 199.3,56.5 295.87,85.84 252.58,76.7 457.09,202.57 418.35,502.29 -64.3,497.22 -572.45,693.82 -1016.99,693.82zm8094.25 -1028.39c127.38,90.26 181.31,235.61 154.16,397.46 -30.25,180.43 -153.61,346.82 -310.28,438.75 -197.4,115.82 -427.57,155.07 -653.86,155.07l-1020.25 0c-12.9,0 -24,-5.67 -31.57,-16.13 -7.57,-10.45 -9.48,-22.77 -5.44,-35.04l610.82 -1854.99c5.36,-16.26 19.9,-26.79 37.03,-26.79l938.08 0c306.47,0 676.22,93.27 626.41,478.6 -27.83,215.29 -160.95,369.47 -345.09,463.07zm1228.93 -458.25l-76.09 234.73 770.52 0c12.89,0 23.97,5.64 31.54,16.08 7.57,10.42 9.51,22.71 5.53,34.96l-127.55 392.19c-5.3,16.33 -19.89,26.93 -37.06,26.93l-798.48 0 -84.79 261.24 918.9 0c12.97,0 24.13,5.72 31.68,16.25 7.55,10.53 9.4,22.94 5.26,35.23l-137.22 405.45c-5.46,16.11 -19.92,26.47 -36.92,26.47l-1486.63 0c-12.92,0 -24.02,-5.67 -31.57,-16.13 -7.58,-10.45 -9.5,-22.77 -5.44,-35.04l610.82 -1854.99c5.35,-16.26 19.89,-26.79 37.01,-26.79l1452.19 0c12.92,0 24.03,5.69 31.6,16.17 7.55,10.48 9.45,22.83 5.4,35.09l-134.57 405.46c-5.4,16.22 -19.93,26.7 -37.01,26.7l-907.11 0zm1572.62 10.59l-515.84 0c-12.92,0 -24.05,-5.69 -31.62,-16.17 -7.55,-10.5 -9.43,-22.85 -5.36,-35.12l138.61 -416.05c5.4,-16.2 19.92,-26.67 36.98,-26.67l1661.54 0c12.92,0 24.05,5.69 31.62,16.19 7.55,10.5 9.43,22.85 5.36,35.1l-138.61 416.07c-5.4,16.2 -19.92,26.65 -36.98,26.65l-538.9 0 -466.05 1412.19c-5.36,16.23 -19.9,26.75 -37.01,26.75l-524.71 0c-12.9,0 -24.02,-5.67 -31.59,-16.14 -7.55,-10.45 -9.47,-22.79 -5.43,-35.06l457.98 -1387.74zm-9081.48 0l-515.83 0c-12.93,0 -24.06,-5.69 -31.62,-16.17 -7.55,-10.5 -9.45,-22.85 -5.36,-35.12l138.61 -416.05c5.4,-16.2 19.92,-26.67 36.98,-26.67l1661.53 0c12.93,0 24.06,5.69 31.62,16.19 7.57,10.5 9.45,22.85 5.36,35.1l-138.59 416.07c-5.41,16.2 -19.92,26.65 -37,26.65l-538.9 0 -466.05 1412.19c-5.36,16.23 -19.9,26.75 -37.01,26.75l-524.69 0c-12.92,0 -24.03,-5.67 -31.59,-16.14 -7.57,-10.45 -9.48,-22.79 -5.43,-35.06l457.97 -1387.74zm2122.89 1078.55l-733.67 0 -249.57 344.29c-7.57,10.44 -18.67,16.09 -31.56,16.09l-553.86 0c-15.22,0 -28.26,-8.11 -34.96,-21.77 -6.72,-13.66 -5.2,-28.95 4.1,-41.01l1429.67 -1854.99c7.63,-9.9 18.38,-15.18 30.88,-15.18l516.74 0c19.95,0 36.51,14.81 38.73,34.64l208.03 1855c1.28,11.42 -2,21.74 -9.68,30.31 -7.66,8.57 -17.56,13 -29.06,13l-522.04 0c-20.43,0 -37.31,-15.63 -38.86,-36l-24.87 -324.39zm1457.23 -1078.55l-515.83 0c-12.93,0 -24.06,-5.69 -31.62,-16.17 -7.57,-10.5 -9.45,-22.85 -5.38,-35.12l138.61 -416.05c5.4,-16.2 19.92,-26.67 36.98,-26.67l1661.54 0c12.92,0 24.05,5.69 31.62,16.19 7.55,10.5 9.45,22.85 5.36,35.1l-138.61 416.07c-5.4,16.2 -19.92,26.65 -36.98,26.65l-538.9 0 -466.05 1412.19c-5.36,16.23 -19.9,26.75 -37.01,26.75l-524.69 0c-12.92,0 -24.03,-5.67 -31.59,-16.14 -7.57,-10.45 -9.48,-22.79 -5.44,-35.06l457.98 -1387.74zm1902.15 -37.11l-92.14 279.8 322.43 0c126.17,0 256.39,-34.3 274.96,-178.03 12.36,-95.6 -90.94,-101.78 -162.46,-101.78l-342.8 0zm-238.87 720.8l-97.38 298.33 402.07 0c99.5,0 222.8,-25.9 272.76,-122.91 20.09,-39.02 30.4,-114.7 -10.73,-144.34 -35.53,-25.61 -88.81,-31.08 -131.25,-31.08l-435.46 0zm-3155.98 -70.01l-35.27 -453.31 -326.19 453.31 361.46 0z"/>
   <g>
    <path fill="#4478CD" fill-rule="nonzero" d="M8814.62 998.45c342.55,161.53 221.21,622.04 -90.86,805.14 -169.76,99.59 -380.69,149.38 -632.76,149.38l-1017.99 0 609.48 -1850.9 936.01 0c319.87,0 630.12,95.84 586.46,433.66 -29.06,224.8 -181.37,378.75 -390.34,462.72zm-739.45 -518.26l-117.55 356.96 375.46 0c157.32,0 292.49,-53.37 312.93,-211.53 12.53,-96.95 -54.36,-145.44 -200.66,-145.44l-370.19 0zm93.81 1094.67c347.16,0 376.06,-270.91 284.18,-337.12 -35.47,-25.56 -86.72,-38.34 -153.7,-38.34l-462.72 0 -122.56 375.46 454.79 0zm1928.17 -1068.22l-101.15 312.01 822.32 0 -127.26 391.33 -824.98 0 -109.86 338.45 970.39 0 -136.9 404.55 -1483.36 0 609.48 -1850.9 1448.99 0 -134.28 404.57 -933.39 0zm1651.22 10.58l-568.49 0 138.3 -415.14 1657.88 0 -138.3 415.14 -565.84 0 -473.83 1435.76 -523.53 0 473.82 -1435.76z"/>
    <path fill="#30BD2D" fill-rule="nonzero" d="M822.79 1989.99c-251.96,0 -557.76,-59.09 -746.44,-198.3l256.82 -391.34c334.1,233.69 901.34,248.02 930.99,18.51 32.57,-252.04 -885.21,-106.66 -809.43,-692.77 95.27,-736.71 1197.67,-785.33 1619.69,-502.38l-240.63 388.69c-288.36,-199.22 -816.67,-186.83 -845.96,39.68 -33.33,257.88 885.6,103.72 811.16,679.53 -60,463.97 -535.07,658.38 -976.19,658.38zm1864.14 -1472.77l-568.5 0 138.3 -415.14 1657.88 0 -138.3 415.14 -565.84 0 -473.83 1435.76 -523.53 0 473.83 -1435.76zm2100.44 1076.16l-787.95 0 -260.66 359.6 -552.63 0 1426.52 -1850.9 515.6 0 207.55 1850.9 -520.88 0 -27.55 -359.6zm-29.41 -386.05l-46.68 -600.2 -431.9 600.2 478.58 0zm1501.19 -690.11l-568.49 0 138.3 -415.14 1657.88 0 -138.3 415.14 -565.85 0 -473.83 1435.76 -523.53 0 473.83 -1435.76z"/>
   </g>
  </g>
 </g>
</svg>
