<svg width="186" height="40" viewBox="0 0 186 40" fill="none" xmlns="http://www.w3.org/2000/svg">
<path d="M36.8062 29.4365C35.2238 29.4365 33.6778 29.2637 32.1681 28.9182C30.6766 28.5544 29.4489 28.0724 28.4849 27.4722L30.5584 22.7795C31.4678 23.307 32.4864 23.7344 33.6141 24.0618C34.7418 24.371 35.824 24.5256 36.8608 24.5256C37.752 24.5256 38.3886 24.4438 38.7706 24.2801C39.1525 24.0982 39.3435 23.8344 39.3435 23.4889C39.3435 23.0887 39.0889 22.7886 38.5796 22.5885C38.0885 22.3884 37.27 22.1702 36.1241 21.9337C34.6509 21.6245 33.4231 21.2971 32.4409 20.9515C31.4587 20.5878 30.6039 20.0057 29.8763 19.2054C29.1488 18.3869 28.785 17.2865 28.785 15.9042C28.785 14.7038 29.1215 13.6124 29.7945 12.6302C30.4675 11.6481 31.4678 10.875 32.7956 10.3112C34.1416 9.74735 35.7695 9.46543 37.6793 9.46543C38.9888 9.46543 40.2711 9.61094 41.5261 9.90196C42.7994 10.1748 43.918 10.584 44.8819 11.1297L42.9449 15.7951C41.0714 14.8493 39.298 14.3764 37.6247 14.3764C35.9695 14.3764 35.1419 14.7765 35.1419 15.5768C35.1419 15.9588 35.3875 16.2498 35.8786 16.4499C36.3697 16.6317 37.1791 16.8318 38.3068 17.0501C39.7619 17.3229 40.9896 17.6412 41.99 18.005C42.9903 18.3506 43.8543 18.9235 44.5818 19.7238C45.3276 20.5241 45.7004 21.6154 45.7004 22.9978C45.7004 24.1982 45.3639 25.2895 44.691 26.2717C44.018 27.2357 43.0085 28.0087 41.6626 28.5908C40.3348 29.1546 38.716 29.4365 36.8062 29.4365ZM51.497 14.8947H45.904V9.90196H63.5288V14.8947H57.9358V29H51.497V14.8947ZM77.2559 25.6715H69.9986L68.7163 29H62.1684L70.517 9.90196H76.8467L85.1952 29H78.5382L77.2559 25.6715ZM75.4825 21.0334L73.6273 16.2316L71.772 21.0334H75.4825ZM89.4107 14.8947H83.8177V9.90196H101.442V14.8947H95.8494V29H89.4107V14.8947ZM118.393 19.0145C119.521 19.4328 120.394 20.0421 121.012 20.8424C121.631 21.6427 121.94 22.6067 121.94 23.7344C121.94 25.4077 121.249 26.7082 119.866 27.6359C118.484 28.5453 116.483 29 113.864 29H103.115V9.90196H113.319C115.865 9.90196 117.784 10.3567 119.075 11.2661C120.385 12.1755 121.04 13.3851 121.04 14.8947C121.04 15.786 120.812 16.5863 120.358 17.2956C119.921 18.005 119.266 18.5779 118.393 19.0145ZM109.444 14.4036V17.2411H112.446C113.846 17.2411 114.546 16.7682 114.546 15.8223C114.546 14.8765 113.846 14.4036 112.446 14.4036H109.444ZM113.319 24.4983C114.737 24.4983 115.447 23.9981 115.447 22.9978C115.447 21.9974 114.737 21.4972 113.319 21.4972H109.444V24.4983H113.319ZM140.095 24.1436V29H124.216V9.90196H139.74V14.7583H130.546V16.9955H138.622V21.6336H130.546V24.1436H140.095ZM146.721 14.8947H141.128V9.90196H158.753V14.8947H153.16V29H146.721V14.8947Z" fill="#848484"/>
</svg>
