<svg width="22" height="21" viewBox="0 0 22 21" fill="none" xmlns="http://www.w3.org/2000/svg">
<path d="M20.5003 3.00002H17.8336V5.00002C17.8336 5.19262 17.7957 5.38334 17.722 5.56129C17.6483 5.73923 17.5402 5.90091 17.404 6.03711C17.2678 6.1733 17.1062 6.28133 16.9282 6.35504C16.7503 6.42875 16.5595 6.46668 16.3669 6.46668C16.1743 6.46668 15.9836 6.42875 15.8057 6.35504C15.6277 6.28133 15.466 6.1733 15.3298 6.03711C15.1937 5.90091 15.0856 5.73923 15.0119 5.56129C14.9382 5.38334 14.9003 5.19262 14.9003 5.00002V3.00002H7.13361V5.00002C7.13361 5.389 6.97908 5.76205 6.70403 6.03711C6.42898 6.31216 6.05592 6.46668 5.66694 6.46668C5.27796 6.46668 4.9049 6.31216 4.62985 6.03711C4.3548 5.76205 4.20027 5.389 4.20027 5.00002V3.00002H1.53361C1.37496 2.99821 1.21755 3.02824 1.07071 3.08832C0.923865 3.14841 0.790561 3.23733 0.678682 3.34983C0.566803 3.46233 0.47862 3.59613 0.419349 3.7433C0.360078 3.89048 0.330922 4.04804 0.333606 4.20668V19.1267C0.330958 19.2825 0.359036 19.4374 0.416237 19.5823C0.473438 19.7273 0.558641 19.8596 0.666981 19.9717C0.77532 20.0837 0.904673 20.1734 1.04765 20.2354C1.19063 20.2975 1.34443 20.3307 1.50027 20.3333H20.5003C20.6561 20.3307 20.8099 20.2975 20.9529 20.2354C21.0959 20.1734 21.2252 20.0837 21.3336 19.9717C21.4419 19.8596 21.5271 19.7273 21.5843 19.5823C21.6415 19.4374 21.6696 19.2825 21.6669 19.1267V4.20668C21.6696 4.05084 21.6415 3.896 21.5843 3.75102C21.5271 3.60603 21.4419 3.47373 21.3336 3.36168C21.2252 3.24962 21.0959 3.16001 20.9529 3.09795C20.8099 3.0359 20.6561 3.00262 20.5003 3.00002ZM5.66694 16.3333H4.33361V15H5.66694V16.3333ZM5.66694 13H4.33361V11.6667H5.66694V13ZM5.66694 9.66668H4.33361V8.33335H5.66694V9.66668ZM9.66694 16.3333H8.33361V15H9.66694V16.3333ZM9.66694 13H8.33361V11.6667H9.66694V13ZM9.66694 9.66668H8.33361V8.33335H9.66694V9.66668ZM13.6669 16.3333H12.3336V15H13.6669V16.3333ZM13.6669 13H12.3336V11.6667H13.6669V13ZM13.6669 9.66668H12.3336V8.33335H13.6669V9.66668ZM17.6669 16.3333H16.3336V15H17.6669V16.3333ZM17.6669 13H16.3336V11.6667H17.6669V13ZM17.6669 9.66668H16.3336V8.33335H17.6669V9.66668Z" fill="#848484"/>
<path d="M5.66667 5.66665C5.84348 5.66665 6.01305 5.59641 6.13807 5.47138C6.2631 5.34636 6.33333 5.17679 6.33333 4.99998V0.99998C6.33333 0.823169 6.2631 0.653599 6.13807 0.528575C6.01305 0.403551 5.84348 0.333313 5.66667 0.333313C5.48986 0.333313 5.32029 0.403551 5.19526 0.528575C5.07024 0.653599 5 0.823169 5 0.99998V4.99998C5 5.17679 5.07024 5.34636 5.19526 5.47138C5.32029 5.59641 5.48986 5.66665 5.66667 5.66665Z" fill="#848484"/>
<path d="M16.3332 5.66665C16.51 5.66665 16.6796 5.59641 16.8046 5.47138C16.9297 5.34636 16.9999 5.17679 16.9999 4.99998V0.99998C16.9999 0.823169 16.9297 0.653599 16.8046 0.528575C16.6796 0.403551 16.51 0.333313 16.3332 0.333313C16.1564 0.333313 15.9869 0.403551 15.8618 0.528575C15.7368 0.653599 15.6666 0.823169 15.6666 0.99998V4.99998C15.6666 5.17679 15.7368 5.34636 15.8618 5.47138C15.9869 5.59641 16.1564 5.66665 16.3332 5.66665Z" fill="#848484"/>
</svg>
