<svg width="22" height="21" viewBox="0 0 22 21" fill="none" xmlns="http://www.w3.org/2000/svg">
<path d="M20.4998 3.00002H17.8332V5.00002C17.8332 5.19262 17.7952 5.38334 17.7215 5.56129C17.6478 5.73923 17.5398 5.90091 17.4036 6.03711C17.2674 6.1733 17.1057 6.28133 16.9278 6.35504C16.7498 6.42875 16.5591 6.46668 16.3665 6.46668C16.1739 6.46668 15.9832 6.42875 15.8052 6.35504C15.6273 6.28133 15.4656 6.1733 15.3294 6.03711C15.1932 5.90091 15.0852 5.73923 15.0115 5.56129C14.9378 5.38334 14.8998 5.19262 14.8998 5.00002V3.00002H7.13318V5.00002C7.13318 5.389 6.97866 5.76205 6.7036 6.03711C6.42855 6.31216 6.0555 6.46668 5.66651 6.46668C5.27753 6.46668 4.90448 6.31216 4.62942 6.03711C4.35437 5.76205 4.19985 5.389 4.19985 5.00002V3.00002H1.53318C1.37453 2.99821 1.21713 3.02824 1.07028 3.08832C0.923438 3.14841 0.790134 3.23733 0.678255 3.34983C0.566375 3.46233 0.478193 3.59613 0.418921 3.7433C0.35965 3.89048 0.330495 4.04804 0.333179 4.20668V19.1267C0.330531 19.2825 0.358609 19.4374 0.41581 19.5823C0.473011 19.7273 0.558214 19.8596 0.666554 19.9717C0.774893 20.0837 0.904245 20.1734 1.04722 20.2354C1.1902 20.2975 1.344 20.3307 1.49985 20.3333H20.4998C20.6557 20.3307 20.8095 20.2975 20.9525 20.2354C21.0954 20.1734 21.2248 20.0837 21.3331 19.9717C21.4415 19.8596 21.5267 19.7273 21.5839 19.5823C21.6411 19.4374 21.6692 19.2825 21.6665 19.1267V4.20668C21.6692 4.05084 21.6411 3.896 21.5839 3.75102C21.5267 3.60603 21.4415 3.47373 21.3331 3.36168C21.2248 3.24962 21.0954 3.16001 20.9525 3.09795C20.8095 3.0359 20.6557 3.00262 20.4998 3.00002ZM5.66651 16.3333H4.33318V15H5.66651V16.3333ZM5.66651 13H4.33318V11.6667H5.66651V13ZM5.66651 9.66668H4.33318V8.33335H5.66651V9.66668ZM9.66651 16.3333H8.33318V15H9.66651V16.3333ZM9.66651 13H8.33318V11.6667H9.66651V13ZM9.66651 9.66668H8.33318V8.33335H9.66651V9.66668ZM13.6665 16.3333H12.3332V15H13.6665V16.3333ZM13.6665 13H12.3332V11.6667H13.6665V13ZM13.6665 9.66668H12.3332V8.33335H13.6665V9.66668ZM17.6665 16.3333H16.3332V15H17.6665V16.3333ZM17.6665 13H16.3332V11.6667H17.6665V13ZM17.6665 9.66668H16.3332V8.33335H17.6665V9.66668Z" fill="#30BD2D"/>
<path d="M5.66667 5.66665C5.84348 5.66665 6.01305 5.59641 6.13807 5.47138C6.2631 5.34636 6.33333 5.17679 6.33333 4.99998V0.99998C6.33333 0.823169 6.2631 0.653599 6.13807 0.528575C6.01305 0.403551 5.84348 0.333313 5.66667 0.333313C5.48986 0.333313 5.32029 0.403551 5.19526 0.528575C5.07024 0.653599 5 0.823169 5 0.99998V4.99998C5 5.17679 5.07024 5.34636 5.19526 5.47138C5.32029 5.59641 5.48986 5.66665 5.66667 5.66665Z" fill="#30BD2D"/>
<path d="M16.3337 5.66665C16.5105 5.66665 16.68 5.59641 16.8051 5.47138C16.9301 5.34636 17.0003 5.17679 17.0003 4.99998V0.99998C17.0003 0.823169 16.9301 0.653599 16.8051 0.528575C16.68 0.403551 16.5105 0.333313 16.3337 0.333313C16.1568 0.333313 15.9873 0.403551 15.8623 0.528575C15.7372 0.653599 15.667 0.823169 15.667 0.99998V4.99998C15.667 5.17679 15.7372 5.34636 15.8623 5.47138C15.9873 5.59641 16.1568 5.66665 16.3337 5.66665Z" fill="#30BD2D"/>
</svg>
