<svg width="672" height="672" viewBox="0 0 672 672" fill="none" xmlns="http://www.w3.org/2000/svg">
<g opacity="0.3">
<path d="M465.578 332.112C453.346 330.38 442.478 340.145 432.923 346.287C412.291 359.465 394.073 374.742 376.486 391.962C365.618 402.62 350.918 416.795 347.033 432.125C345.248 439.212 347.453 447.35 348.871 454.28C351.338 466.355 355.118 478.115 358.898 489.823C363.17 502.981 368.111 515.913 373.703 528.567C376.486 534.92 379.531 541.22 382.523 547.52C385.306 553.4 387.143 556.865 393.968 557.757C401.633 558.755 409.298 557.6 416.911 557.285C428.146 556.865 439.381 555.762 450.458 553.872C465.106 551.405 479.858 548.727 493.876 543.74C506.843 539.067 521.701 531.822 529.208 519.905C545.326 494.285 555.091 465.2 560.446 435.537C562.021 426.98 563.543 418.265 563.491 409.497C563.543 401.78 564.226 393.852 558.661 387.92C548.686 377.21 536.873 368.337 524.641 360.305C506.528 348.545 487.576 335.262 465.578 332.112Z" fill="#EAEAEA"/>
<path d="M109.368 208.32C97.9754 214.358 89.0504 228.743 82.3829 239.295C69.0479 260.295 58.2854 284.55 53.2454 308.963C49.4129 327.653 57.7604 345.87 64.0079 363.143C70.0979 379.785 80.7029 392.963 92.3054 406.035C95.2454 409.395 98.9729 411.915 101.913 415.223C105.273 418.95 109.525 422.468 113.935 424.935C117.085 426.72 119.92 424.305 123.123 423.57C131.575 421.523 137.875 417.218 145.54 413.175C152.418 409.5 159.505 406.403 166.435 402.728C181.293 394.748 198.985 388.185 211.953 377.213C213.633 375.795 215.838 374.01 216.31 371.753C217.518 366.135 215.838 358.838 215.575 353.115C215.26 345.083 215.155 337.103 215.103 329.07C215.05 310.905 215.733 292.74 215.733 274.575C215.89 264.443 217.15 254.363 216.678 244.23C215.838 229.163 199.563 223.808 187.33 220.763C170.163 216.51 152.89 210.683 135.355 208.53C128.11 207.743 116.14 204.75 109.368 208.32Z" fill="#EAEAEA"/>
<path d="M555.04 163.013C556.667 151.621 549.055 137.918 543.542 127.733C532.622 107.416 516.977 87.4656 497.447 71.6106C482.537 59.4831 460.592 54.5481 440.17 52.5006C403.577 48.7731 375.647 51.0306 367.93 52.2381C360.16 53.4456 352.862 55.8081 348.715 60.9531C340.525 70.9281 339.107 85.2081 337.375 97.4931C334.855 115.028 332.65 133.088 334.96 150.728C335.327 153.878 335.8 158.026 337.322 160.808C340.21 165.953 346.3 168.526 352.337 171.203C383.627 185.011 443.32 219.188 453.032 223.808C467.522 230.791 482.957 221.498 493.667 213.991C508.525 203.543 525.062 193.726 538.187 181.913C543.595 177.083 554.042 169.733 555.04 163.013Z" fill="#EAEAEA"/>
<path d="M105.589 553.561C106.849 555.504 108.056 556.974 109.999 558.444C113.096 560.806 116.036 563.221 118.976 565.794C144.649 588.316 174.731 605.274 204.551 621.549C213.529 626.484 222.086 631.524 231.221 636.091C241.091 640.974 251.276 644.281 261.881 647.221C269.074 649.216 276.371 651.159 283.826 651.894C290.756 652.576 297.844 654.204 304.826 654.309C308.816 654.361 312.491 654.204 316.376 653.679C314.486 650.634 312.806 646.749 311.179 643.494C308.606 638.401 305.981 633.256 303.356 628.216C300.311 622.389 297.949 616.299 294.851 610.524C292.436 606.114 289.286 601.546 284.929 598.974C279.101 595.509 273.536 592.096 267.184 589.524C243.979 580.074 223.189 566.739 201.611 554.244C190.691 547.891 179.981 541.119 169.691 533.716C164.179 529.779 158.824 525.684 152.996 522.166C151.789 521.379 150.581 520.434 149.164 520.224C147.904 520.014 145.961 520.066 144.701 520.224C143.546 520.381 142.181 520.591 141.079 520.801C133.519 522.376 125.329 524.371 117.506 526.104C110.051 527.784 101.704 528.361 94.5637 531.091C91.7812 532.141 92.0962 533.716 93.1987 536.131C94.8787 539.911 97.3462 543.376 99.9187 546.526C101.651 548.784 103.804 550.884 105.589 553.561Z" fill="#EAEAEA"/>
<path d="M196.417 253.677C194.639 253.678 192.897 253.177 191.392 252.23C189.888 251.283 188.681 249.93 187.913 248.327C187.144 246.724 186.844 244.937 187.049 243.17C187.253 241.404 187.953 239.732 189.067 238.347C191.639 235.197 252.224 160.962 360.584 144.162C361.805 143.976 363.05 144.032 364.248 144.327C365.447 144.622 366.576 145.15 367.57 145.881C368.565 146.613 369.406 147.533 370.044 148.589C370.683 149.645 371.108 150.817 371.294 152.037C371.48 153.257 371.424 154.502 371.129 155.701C370.834 156.9 370.306 158.028 369.575 159.023C368.844 160.017 367.924 160.858 366.867 161.497C365.811 162.136 364.64 162.561 363.419 162.747C262.567 178.444 204.292 249.477 203.714 250.159C201.824 252.469 199.147 253.677 196.417 253.677Z" fill="#EAEAEA"/>
<path d="M174.052 583.273C171.322 583.273 168.592 582.118 166.754 579.808C164.182 576.658 104.489 501.688 110.947 392.278C111.262 387.08 115.672 383.09 120.869 383.405C126.067 383.72 130.004 388.183 129.689 393.38C123.704 495.598 180.772 567.26 181.349 567.943C184.657 571.985 183.974 577.918 179.984 581.173C178.252 582.538 176.152 583.273 174.052 583.273Z" fill="#EAEAEA"/>
<path d="M245.03 620.234C240.2 620.234 236.105 616.559 235.685 611.624C235.265 606.427 239.097 601.859 244.295 601.439C245.187 601.387 336.642 592.777 406.047 517.912C407.755 516.084 410.117 515.008 412.617 514.92C415.117 514.831 417.549 515.737 419.382 517.439C423.215 520.957 423.425 526.942 419.855 530.774C345.305 611.099 249.86 619.867 245.87 620.234C245.555 620.182 245.292 620.234 245.03 620.234Z" fill="#EAEAEA"/>
<path d="M114.243 242.39C109.833 242.39 105.895 239.293 105.055 234.778C104.53 232.153 92.6652 169.94 118.233 96.2305C119.965 91.2955 125.268 88.6705 130.203 90.403C135.085 92.1355 137.71 97.438 136.03 102.373C112.09 171.358 123.378 230.525 123.535 231.156C124.533 236.248 121.225 241.236 116.08 242.233C115.503 242.338 114.873 242.39 114.243 242.39Z" fill="#EAEAEA"/>
<path d="M387.823 87.9877C385.88 87.9877 383.885 87.3577 382.258 86.0977C381.785 85.7827 332.803 50.2403 260.51 42.3128C255.365 41.7878 251.585 37.1153 252.163 31.9703C252.688 26.7728 257.36 23.0978 262.505 23.6228C340.1 32.0753 391.235 69.3503 393.388 70.9253C397.535 74.0228 398.428 79.9028 395.33 84.1027C393.545 86.6752 390.71 87.9877 387.823 87.9877Z" fill="#EAEAEA"/>
<path d="M625.44 241.13C622.71 241.13 619.98 239.922 618.09 237.612C572.205 180.859 516.03 159.072 515.505 158.862C513.17 157.979 511.279 156.208 510.246 153.936C509.213 151.663 509.122 149.074 509.992 146.734C511.83 141.852 517.29 139.437 522.12 141.222C524.64 142.167 583.65 165.057 632.685 225.747C635.992 229.79 635.31 235.722 631.267 238.977C629.587 240.447 627.487 241.13 625.44 241.13Z" fill="#EAEAEA"/>
<path d="M459.274 368.392C458.906 368.392 458.434 368.34 458.066 368.287C456.841 368.129 455.658 367.731 454.587 367.114C453.517 366.497 452.578 365.675 451.827 364.694C451.075 363.713 450.525 362.593 450.209 361.399C449.892 360.204 449.814 358.959 449.981 357.735C462.004 267.75 450.191 201.285 450.034 200.602C449.089 195.51 452.449 190.575 457.594 189.682C462.739 188.685 467.621 192.15 468.566 197.242C469.039 200.077 481.061 267.33 468.619 360.255C467.989 364.98 463.946 368.392 459.274 368.392Z" fill="#EAEAEA"/>
<path d="M377.585 445.251C377.27 445.251 377.06 445.251 376.745 445.199C259.775 434.856 182.811 368.864 179.556 366.081C177.677 364.44 176.523 362.123 176.346 359.635C176.169 357.147 176.983 354.689 178.611 352.799C182.023 348.861 187.955 348.441 191.893 351.854C192.68 352.484 267.755 416.691 378.425 426.456C380.832 426.684 383.058 427.828 384.645 429.652C386.231 431.475 387.055 433.839 386.947 436.253C386.839 438.668 385.807 440.949 384.065 442.624C382.322 444.298 380.002 445.239 377.585 445.251Z" fill="#EAEAEA"/>
<path d="M41.638 337.363C33.7105 337.363 25.048 336.366 16.963 333.268C14.628 332.386 12.7374 330.614 11.7045 328.342C10.6715 326.069 10.5802 323.48 11.4505 321.141C13.3405 316.311 18.6955 313.843 23.6305 315.628C40.9555 322.243 64.1081 315.471 64.3706 315.418C69.3056 313.948 74.5556 316.731 76.0256 321.771C77.548 326.706 74.7131 331.956 69.7781 333.478C68.9906 333.688 56.6005 337.363 41.638 337.363Z" fill="#EAEAEA"/>
<path d="M554.772 417.69C551.202 417.69 547.842 415.643 546.267 412.23C544.062 407.558 546.162 401.94 550.835 399.735C551.36 399.473 606.065 373.59 647.697 313.95C650.637 309.645 656.517 308.595 660.77 311.588C665.022 314.58 666.072 320.408 663.132 324.66C618.507 388.658 561.177 415.643 558.762 416.798C557.397 417.375 556.085 417.69 554.772 417.69Z" fill="#EAEAEA"/>
<path d="M554.779 576.606C552.679 576.606 550.579 575.923 548.794 574.558C527.269 557.601 506.427 526.783 505.534 525.523C502.594 521.113 503.749 515.128 508.159 512.136C512.517 509.196 518.554 510.351 521.494 514.813C521.704 515.076 541.549 544.371 560.712 559.438C564.859 562.746 565.594 568.783 562.339 572.983C560.397 575.293 557.614 576.606 554.779 576.606Z" fill="#EAEAEA"/>
<path d="M336.007 670.529C151.522 670.529 1.47656 520.484 1.47656 335.999C1.47656 151.567 151.522 1.46912 336.007 1.46912C520.492 1.46912 670.537 151.567 670.537 335.947C670.537 520.484 520.439 670.529 336.007 670.529ZM336.007 39.1116C172.312 39.1116 39.1191 172.304 39.1191 335.999C39.1191 499.694 172.259 632.887 335.954 632.887C499.649 632.887 632.842 499.694 632.842 335.999C632.894 172.304 499.649 39.1116 336.007 39.1116Z" fill="#EAEAEA"/>
</g>
</svg>
